<svg width="763" height="443" viewBox="0 0 763 443" fill="none" xmlns="http://www.w3.org/2000/svg">
<path fill-rule="evenodd" clip-rule="evenodd" d="M105.687 0.708502H656.183C668.224 0.708502 671.603 0.708502 676.787 2.45149C682.916 4.69136 687.772 9.54703 690.011 15.6755C691.755 20.8598 691.755 24.2385 691.755 36.2799C691.755 69.629 691.755 401.878 691.755 401.878C691.755 413.92 691.755 417.298 690.011 422.483C687.772 428.611 682.916 433.467 676.787 435.707C671.603 437.45 668.224 437.45 656.183 437.45C622.834 437.45 105.687 437.45 105.687 437.45C93.6457 437.45 90.2663 437.45 85.0828 435.707C78.9539 433.467 74.0984 428.611 71.8585 422.483C70.1153 417.298 70.1153 413.92 70.1153 401.878C70.1153 368.529 70.1153 36.2799 70.1153 36.2799C70.1153 24.2385 70.1153 20.8598 71.8585 15.6755C74.0984 9.54703 78.9539 4.69136 85.0828 2.45149C90.2663 0.708502 93.6457 0.708502 105.687 0.708502Z" fill="url(#paint0_linear_26_141)"/>
<path fill-rule="evenodd" clip-rule="evenodd" d="M106.587 2.8948H654.862C666.854 2.8948 670.219 2.8948 675.383 4.61861C681.487 6.83382 686.323 11.6361 688.553 17.6971C690.29 22.8244 690.29 26.1658 690.29 38.0748C690.29 71.0569 690.29 399.65 690.29 399.65C690.29 411.559 690.29 414.9 688.553 420.027C686.323 426.089 681.487 430.891 675.383 433.106C670.219 434.83 666.854 434.83 654.862 434.83C621.647 434.83 106.587 434.83 106.587 434.83C94.5947 434.83 91.229 434.83 86.0664 433.106C79.9622 430.891 75.1263 426.089 72.8955 420.027C71.1593 414.9 71.1593 411.559 71.1593 399.65C71.1593 366.668 71.1593 38.0748 71.1593 38.0748C71.1593 26.1658 71.1593 22.8244 72.8955 17.6971C75.1263 11.6361 79.9622 6.83382 86.0664 4.61861C91.229 2.8948 94.5947 2.8948 106.587 2.8948Z" stroke="#F3F3F3" stroke-width="2"/>
<path fill-rule="evenodd" clip-rule="evenodd" d="M379.89 15.5841C381.162 15.5841 382.192 16.6149 382.192 17.8864C382.192 19.158 381.162 20.1888 379.89 20.1888C378.618 20.1888 377.588 19.158 377.588 17.8864C377.588 16.6149 378.618 15.5841 379.89 15.5841Z" fill="#F2F2F2"/>
<g filter="url(#filter0_i_26_141)">
<path fill-rule="evenodd" clip-rule="evenodd" d="M0.709102 422.928H761.553V427.178H0.709102V422.928Z" fill="white"/>
<path fill-rule="evenodd" clip-rule="evenodd" d="M0.709102 422.928H761.553V427.178H0.709102V422.928Z" fill="url(#paint1_linear_26_141)" style="mix-blend-mode:multiply"/>
</g>
<g style="mix-blend-mode:multiply" opacity="0.1">
<path fill-rule="evenodd" clip-rule="evenodd" d="M733.215 422.927H761.551V427.178H733.215V422.927Z" fill="url(#paint2_linear_26_141)"/>
</g>
<g style="mix-blend-mode:multiply" opacity="0.1">
<path fill-rule="evenodd" clip-rule="evenodd" d="M0.709187 422.928H29.046V427.178H0.709187V422.928Z" fill="url(#paint3_linear_26_141)"/>
</g>
<path fill-rule="evenodd" clip-rule="evenodd" d="M0.70814 427.177H761.552C757.056 429.985 717.172 441.505 584.447 438.512C572.725 438.512 242.397 438.158 170.021 438.158C86.0219 438.158 51.2491 438.495 19.5116 432.38C8.40087 430.239 2.83713 428.47 0.70814 427.177Z" fill="white"/>
<path fill-rule="evenodd" clip-rule="evenodd" d="M0.70814 427.177H761.552C757.056 429.985 717.172 441.505 584.447 438.512C572.725 438.512 242.397 438.158 170.021 438.158C86.0219 438.158 51.2491 438.495 19.5116 432.38C8.40087 430.239 2.83713 428.47 0.70814 427.177Z" fill="url(#paint4_linear_26_141)" style="mix-blend-mode:multiply"/>
<path fill-rule="evenodd" clip-rule="evenodd" d="M0.70814 427.177H761.552C757.056 429.985 717.172 441.505 584.447 438.512C572.725 438.512 242.397 438.158 170.021 438.158C86.0219 438.158 51.2491 438.495 19.5116 432.38C8.40087 430.239 2.83713 428.47 0.70814 427.177Z" fill="url(#paint5_linear_26_141)" style="mix-blend-mode:multiply"/>
<path fill-rule="evenodd" clip-rule="evenodd" d="M0.70814 427.177H761.552C757.056 429.985 717.172 441.505 584.447 438.512C572.725 438.512 242.397 438.158 170.021 438.158C86.0219 438.158 51.2491 438.495 19.5116 432.38C8.40087 430.239 2.83713 428.47 0.70814 427.177Z" fill="url(#paint6_linear_26_141)" style="mix-blend-mode:multiply"/>
<path fill-rule="evenodd" clip-rule="evenodd" d="M0.70814 427.177H761.552C757.056 429.985 717.172 441.505 584.447 438.512C572.725 438.512 242.397 438.158 170.021 438.158C86.0219 438.158 51.2491 438.495 19.5116 432.38C8.40087 430.239 2.83713 428.47 0.70814 427.177Z" fill="url(#paint7_linear_26_141)" style="mix-blend-mode:multiply"/>
<path fill-rule="evenodd" clip-rule="evenodd" d="M0.70814 427.177H761.552C757.056 429.985 717.172 441.505 584.447 438.512C572.725 438.512 242.397 438.158 170.021 438.158C86.0219 438.158 51.2491 438.495 19.5116 432.38C8.40087 430.239 2.83713 428.47 0.70814 427.177Z" fill="url(#paint8_linear_26_141)"/>
<g filter="url(#filter1_i_26_141)">
<path fill-rule="evenodd" clip-rule="evenodd" d="M308.163 422.927H322.331H439.575H453.743V426.824C453.743 428.317 439.575 428.595 439.575 428.595H322.331C322.331 428.595 308.163 428.317 308.163 426.824V422.927Z" fill="white"/>
</g>
<g style="mix-blend-mode:multiply" opacity="0.07">
<path fill-rule="evenodd" clip-rule="evenodd" d="M308.163 422.926H322.331V428.594C322.331 428.594 308.163 428.316 308.163 426.822C308.163 425.329 308.163 422.926 308.163 422.926Z" fill="url(#paint9_linear_26_141)"/>
</g>
<g style="mix-blend-mode:multiply" opacity="0.07">
<path fill-rule="evenodd" clip-rule="evenodd" d="M453.743 422.926H439.575V428.594C439.575 428.594 453.743 428.316 453.743 426.822C453.743 425.329 453.743 422.926 453.743 422.926Z" fill="url(#paint10_linear_26_141)"/>
</g>
<path d="M93.3442 27.1559H91.8117V28.6885V388.424V389.956H93.3442H668.921H670.453V388.424V28.6885V27.1559H668.921H93.3442Z" stroke="#E1E1E1" stroke-width="3.0651"/>
<defs>
<filter id="filter0_i_26_141" x="0.708984" y="422.928" width="760.844" height="4.25049" filterUnits="userSpaceOnUse" color-interpolation-filters="sRGB">
<feFlood flood-opacity="0" result="BackgroundImageFix"/>
<feBlend mode="normal" in="SourceGraphic" in2="BackgroundImageFix" result="shape"/>
<feColorMatrix in="SourceAlpha" type="matrix" values="0 0 0 0 0 0 0 0 0 0 0 0 0 0 0 0 0 0 127 0" result="hardAlpha"/>
<feOffset dy="1.53255"/>
<feComposite in2="hardAlpha" operator="arithmetic" k2="-1" k3="1"/>
<feColorMatrix type="matrix" values="0 0 0 0 0 0 0 0 0 0 0 0 0 0 0 0 0 0 0.02 0"/>
<feBlend mode="normal" in2="shape" result="effect1_innerShadow_26_141"/>
</filter>
<filter id="filter1_i_26_141" x="308.163" y="422.927" width="145.581" height="5.66724" filterUnits="userSpaceOnUse" color-interpolation-filters="sRGB">
<feFlood flood-opacity="0" result="BackgroundImageFix"/>
<feBlend mode="normal" in="SourceGraphic" in2="BackgroundImageFix" result="shape"/>
<feColorMatrix in="SourceAlpha" type="matrix" values="0 0 0 0 0 0 0 0 0 0 0 0 0 0 0 0 0 0 127 0" result="hardAlpha"/>
<feOffset dy="1.53255"/>
<feComposite in2="hardAlpha" operator="arithmetic" k2="-1" k3="1"/>
<feColorMatrix type="matrix" values="0 0 0 0 0 0 0 0 0 0 0 0 0 0 0 0 0 0 0.03 0"/>
<feBlend mode="normal" in2="shape" result="effect1_innerShadow_26_141"/>
</filter>
<linearGradient id="paint0_linear_26_141" x1="380.935" y1="0" x2="380.935" y2="438.158" gradientUnits="userSpaceOnUse">
<stop offset="0.880227" stop-color="white"/>
<stop offset="1" stop-color="#F8F8F8"/>
</linearGradient>
<linearGradient id="paint1_linear_26_141" x1="0.35498" y1="427.532" x2="761.907" y2="427.532" gradientUnits="userSpaceOnUse">
<stop stop-opacity="0.04"/>
<stop offset="1" stop-color="white" stop-opacity="0.04"/>
</linearGradient>
<linearGradient id="paint2_linear_26_141" x1="769.085" y1="421.96" x2="732.86" y2="421.96" gradientUnits="userSpaceOnUse">
<stop/>
<stop offset="1" stop-color="white"/>
<stop offset="1" stop-color="white"/>
</linearGradient>
<linearGradient id="paint3_linear_26_141" x1="0.35498" y1="427.532" x2="29.4002" y2="427.532" gradientUnits="userSpaceOnUse">
<stop/>
<stop offset="1" stop-color="white"/>
<stop offset="1" stop-color="white"/>
</linearGradient>
<linearGradient id="paint4_linear_26_141" x1="0" y1="442.054" x2="762.261" y2="442.054" gradientUnits="userSpaceOnUse">
<stop stop-opacity="0.07"/>
<stop offset="1" stop-color="#EAEAEA" stop-opacity="0.07"/>
<stop offset="1" stop-color="white" stop-opacity="0.07"/>
</linearGradient>
<linearGradient id="paint5_linear_26_141" x1="0" y1="442.054" x2="762.261" y2="442.054" gradientUnits="userSpaceOnUse">
<stop stop-opacity="0.07"/>
<stop offset="1" stop-color="#EAEAEA" stop-opacity="0.07"/>
<stop offset="1" stop-color="white" stop-opacity="0.07"/>
</linearGradient>
<linearGradient id="paint6_linear_26_141" x1="0" y1="426.469" x2="0" y2="442.054" gradientUnits="userSpaceOnUse">
<stop stop-opacity="0.07"/>
<stop offset="1" stop-color="white" stop-opacity="0.07"/>
</linearGradient>
<linearGradient id="paint7_linear_26_141" x1="0" y1="426.469" x2="0" y2="442.054" gradientUnits="userSpaceOnUse">
<stop stop-color="white" stop-opacity="0.05"/>
<stop offset="1" stop-opacity="0.05"/>
</linearGradient>
<linearGradient id="paint8_linear_26_141" x1="381.13" y1="426.469" x2="381.413" y2="452.076" gradientUnits="userSpaceOnUse">
<stop stop-color="#F9F9F9"/>
<stop offset="1" stop-color="#E8E8E8" stop-opacity="0"/>
</linearGradient>
<linearGradient id="paint9_linear_26_141" x1="307.455" y1="428.948" x2="322.686" y2="428.948" gradientUnits="userSpaceOnUse">
<stop/>
<stop offset="1" stop-color="white"/>
<stop offset="1" stop-color="white"/>
</linearGradient>
<linearGradient id="paint10_linear_26_141" x1="454.098" y1="422.218" x2="439.221" y2="422.218" gradientUnits="userSpaceOnUse">
<stop/>
<stop offset="1" stop-color="white"/>
<stop offset="1" stop-color="white"/>
</linearGradient>
</defs>
</svg>
